<svg version="1.2" xmlns="http://www.w3.org/2000/svg" viewBox="0 0 1024 1024" width="24" height="24"><style></style><path fill="#0e6abf" fill-rule="evenodd" d="m691.6 78.4c56.9 23.6 108.7 58.2 152.3 101.7 43.5 43.6 78.1 95.4 101.7 152.3 23.6 57 35.8 118 35.8 179.6 0 189.9-114.4 360.9-289.8 433.6-175.4 72.6-377.3 32.5-511.5-101.7-134.2-134.2-174.3-336.1-101.7-511.5 72.7-175.4 243.7-289.8 433.6-289.8 61.6 0 122.6 12.2 179.6 35.8zm-49 749c41.4-17.2 79.1-42.3 110.8-74 31.7-31.7 56.8-69.4 74-110.8 17.1-41.4 25.9-85.8 25.9-130.6 0-138.1-83.1-262.5-210.7-315.4-127.5-52.8-274.3-23.6-372 74-97.6 97.7-126.8 244.5-74 372 52.9 127.6 177.3 210.7 315.4 210.7 44.8 0 89.2-8.8 130.6-25.9z"/></svg>
